<svg width="36" height="35" viewBox="0 0 36 35" fill="none" xmlns="http://www.w3.org/2000/svg">
<path d="M4.87502 13.125C5.26179 13.125 5.63273 12.9714 5.90622 12.6979C6.17971 12.4244 6.33335 12.0534 6.33335 11.6667V7.29167C6.33335 6.90489 6.487 6.53396 6.76049 6.26047C7.03398 5.98698 7.40491 5.83333 7.79169 5.83333H12.1667C12.5535 5.83333 12.9244 5.67969 13.1979 5.4062C13.4714 5.13271 13.625 4.76178 13.625 4.375C13.625 3.98823 13.4714 3.61729 13.1979 3.3438C12.9244 3.07031 12.5535 2.91667 12.1667 2.91667H7.79169C6.63137 2.91667 5.51857 3.3776 4.6981 4.19808C3.87762 5.01855 3.41669 6.13135 3.41669 7.29167V11.6667C3.41669 12.0534 3.57033 12.4244 3.84382 12.6979C4.11731 12.9714 4.48825 13.125 4.87502 13.125ZM12.1667 29.1667H7.79169C7.40491 29.1667 7.03398 29.013 6.76049 28.7395C6.487 28.466 6.33335 28.0951 6.33335 27.7083V23.3333C6.33335 22.9466 6.17971 22.5756 5.90622 22.3021C5.63273 22.0286 5.26179 21.875 4.87502 21.875C4.48825 21.875 4.11731 22.0286 3.84382 22.3021C3.57033 22.5756 3.41669 22.9466 3.41669 23.3333V27.7083C3.41669 28.8687 3.87762 29.9815 4.6981 30.8019C5.51857 31.6224 6.63137 32.0833 7.79169 32.0833H12.1667C12.5535 32.0833 12.9244 31.9297 13.1979 31.6562C13.4714 31.3827 13.625 31.0118 13.625 30.625C13.625 30.2382 13.4714 29.8673 13.1979 29.5938C12.9244 29.3203 12.5535 29.1667 12.1667 29.1667ZM25.2917 18.9583C25.6785 18.9583 26.0494 18.8047 26.3229 18.5312C26.5964 18.2577 26.75 17.8868 26.75 17.5C26.75 17.1132 26.5964 16.7423 26.3229 16.4688C26.0494 16.1953 25.6785 16.0417 25.2917 16.0417H23.6292C23.3673 15.0385 22.8429 14.1233 22.1098 13.3902C21.3767 12.6572 20.4615 12.1327 19.4584 11.8708V10.2083C19.4584 9.82156 19.3047 9.45063 19.0312 9.17714C18.7577 8.90365 18.3868 8.75 18 8.75C17.6132 8.75 17.2423 8.90365 16.9688 9.17714C16.6953 9.45063 16.5417 9.82156 16.5417 10.2083V11.8708C15.5386 12.1327 14.6233 12.6572 13.8903 13.3902C13.1572 14.1233 12.6327 15.0385 12.3709 16.0417H10.7084C10.3216 16.0417 9.95065 16.1953 9.67716 16.4688C9.40367 16.7423 9.25002 17.1132 9.25002 17.5C9.25002 17.8868 9.40367 18.2577 9.67716 18.5312C9.95065 18.8047 10.3216 18.9583 10.7084 18.9583H12.3709C12.6327 19.9615 13.1572 20.8767 13.8903 21.6098C14.6233 22.3428 15.5386 22.8673 16.5417 23.1292V24.7917C16.5417 25.1784 16.6953 25.5494 16.9688 25.8229C17.2423 26.0964 17.6132 26.25 18 26.25C18.3868 26.25 18.7577 26.0964 19.0312 25.8229C19.3047 25.5494 19.4584 25.1784 19.4584 24.7917V23.1292C20.4615 22.8673 21.3767 22.3428 22.1098 21.6098C22.8429 20.8767 23.3673 19.9615 23.6292 18.9583H25.2917ZM18 20.4167C17.4232 20.4167 16.8593 20.2456 16.3796 19.9251C15.9 19.6046 15.5261 19.1491 15.3054 18.6162C15.0846 18.0832 15.0269 17.4968 15.1394 16.931C15.2519 16.3652 15.5297 15.8455 15.9376 15.4376C16.3455 15.0297 16.8652 14.7519 17.431 14.6394C17.9968 14.5268 18.5832 14.5846 19.1162 14.8054C19.6491 15.0261 20.1047 15.3999 20.4251 15.8796C20.7456 16.3592 20.9167 16.9231 20.9167 17.5C20.9167 18.2735 20.6094 19.0154 20.0624 19.5624C19.5154 20.1094 18.7736 20.4167 18 20.4167ZM31.125 21.875C30.7382 21.875 30.3673 22.0286 30.0938 22.3021C29.8203 22.5756 29.6667 22.9466 29.6667 23.3333V27.7083C29.6667 28.0951 29.513 28.466 29.2396 28.7395C28.9661 29.013 28.5951 29.1667 28.2084 29.1667H23.8334C23.4466 29.1667 23.0756 29.3203 22.8022 29.5938C22.5287 29.8673 22.375 30.2382 22.375 30.625C22.375 31.0118 22.5287 31.3827 22.8022 31.6562C23.0756 31.9297 23.4466 32.0833 23.8334 32.0833H28.2084C29.3687 32.0833 30.4815 31.6224 31.3019 30.8019C32.1224 29.9815 32.5834 28.8687 32.5834 27.7083V23.3333C32.5834 22.9466 32.4297 22.5756 32.1562 22.3021C31.8827 22.0286 31.5118 21.875 31.125 21.875ZM28.2084 2.91667H23.8334C23.4466 2.91667 23.0756 3.07031 22.8022 3.3438C22.5287 3.61729 22.375 3.98823 22.375 4.375C22.375 4.76178 22.5287 5.13271 22.8022 5.4062C23.0756 5.67969 23.4466 5.83333 23.8334 5.83333H28.2084C28.5951 5.83333 28.9661 5.98698 29.2396 6.26047C29.513 6.53396 29.6667 6.90489 29.6667 7.29167V11.6667C29.6667 12.0534 29.8203 12.4244 30.0938 12.6979C30.3673 12.9714 30.7382 13.125 31.125 13.125C31.5118 13.125 31.8827 12.9714 32.1562 12.6979C32.4297 12.4244 32.5834 12.0534 32.5834 11.6667V7.29167C32.5834 6.13135 32.1224 5.01855 31.3019 4.19808C30.4815 3.3776 29.3687 2.91667 28.2084 2.91667Z" fill="white"/>
</svg>
