<svg width="512" height="512" viewBox="0 0 512 512" fill="none" xmlns="http://www.w3.org/2000/svg">
<g clip-path="url(#clip0_28_4)">
<path d="M1.46879 0C5.94465 1.34276 12.0695 3.67492 19.3722 7.11426C35.98 14.8528 57.7704 27.1967 80.5031 41.2721C125.851 69.3758 175.321 105.253 193.695 124.217L194.637 125.159L244.108 153.899C239.867 156.49 235.863 159.317 231.74 162.497C216.663 174.158 201.94 189.117 194.049 196.537L208.418 212.085C217.252 203.84 231.269 189.588 244.696 179.223C251.292 174.158 257.888 170.036 262.364 168.269C264.956 167.326 266.251 167.091 266.84 167.091L267.782 167.68L486.193 385.819C482.247 386.408 478.266 387.468 474.308 388.764C456.817 394.535 438.336 406.314 421.493 423.157C404.767 439.883 392.989 458.375 387.099 475.807C386.393 478.045 385.686 480.283 385.215 482.639L169.314 266.738L126.911 197.715L126.086 196.773C105.12 175.925 69.4312 125.63 41.7515 79.8117C27.8528 56.9494 15.8386 34.9824 8.41815 18.351C5.00236 10.8127 2.76444 4.55831 1.46879 0ZM495.839 406.196C501.034 406.196 504.72 407.609 506.876 409.73C510.704 413.617 512.2 422.215 507.795 435.642C503.295 448.952 493.13 465.325 478.478 480.048C463.813 494.653 447.488 504.783 434.096 509.259C420.668 513.734 412.07 512.203 408.183 508.434C404.414 504.547 402.883 495.949 407.241 482.521C411.834 469.211 421.964 452.839 436.687 438.234C451.316 423.511 467.641 413.381 480.975 408.905C486.84 406.903 491.799 406.196 495.839 406.196ZM475.886 450.366C473.39 450.509 470.179 451.714 466.653 453.83C463.127 455.946 459.444 458.879 456.063 462.262C451.511 466.817 447.828 471.867 445.821 476.305C443.814 480.742 443.647 484.206 445.356 485.937C447.083 487.658 450.55 487.496 454.997 485.485C459.443 483.475 464.504 479.782 469.067 475.219C473.619 470.663 477.301 465.614 479.308 461.176C481.315 456.738 481.482 453.275 479.773 451.544C478.905 450.672 477.583 450.272 475.886 450.366Z" fill="black"/>
</g>
<defs>
<clipPath id="clip0_28_4">
<rect width="512" height="512" fill="white" transform="matrix(-1 0 0 1 512 0)"/>
</clipPath>
</defs>
</svg>
